<svg width="19" height="18" viewBox="0 0 19 18" fill="none" xmlns="http://www.w3.org/2000/svg">
<path d="M14.5029 0C13.5643 0 12.6643 0.372857 12.0086 1.02857L6.15857 6.89143C5.09143 7.94571 4.5 9.37286 4.5 10.8643V13.5H7.13571C8.64 13.5 10.0671 12.9086 11.1214 11.8543L16.9843 5.99143C18.3471 4.61571 18.3471 2.39143 16.9714 1.02857C16.3157 0.372857 15.4286 0 14.5029 0ZM15.39 4.41L9.52714 10.26C8.89714 10.9029 8.03571 11.25 7.13571 11.25H6.75V10.8643C6.75 9.96428 7.11 9.11571 7.74 8.47286L13.6029 2.62286C14.0657 2.09571 14.8629 2.05714 15.39 2.52C15.9043 2.98286 15.9557 3.78 15.4929 4.30714C15.4543 4.33286 15.4286 4.37143 15.39 4.39714V4.41ZM3.38143 18H13.5129C15.3771 18 16.8814 16.4829 16.8814 14.6314V10.1314H14.6314V14.6314C14.6314 15.2486 14.13 15.75 13.5129 15.75H3.38143C2.75143 15.75 2.25 15.2486 2.25 14.6314V4.5C2.25 3.88286 2.75143 3.38143 3.38143 3.38143H7.88143V1.13143H3.38143C1.51714 1.13143 0 2.63571 0 4.5V14.6314C0 16.4829 1.51714 18 3.38143 18Z" fill="#A7AEBC"/>
</svg>
